<svg version="1.1" id="Layer_1" xmlns="http://www.w3.org/2000/svg" xmlns:xlink="http://www.w3.org/1999/xlink" x="0px" y="0px" viewBox="0 0 16 16" style="enable-background:new 0 0 16 16;" xml:space="preserve">
	<path fill="white" d="m3.612 9.35c-.373 0-.675.302-.675.675 0 .373.302 .675.675 .675h1.328l-.315 2.385c0 .373.302 .675.675 .675s.675-.302.675-.675l.315-2.385h2.7l-.315 2.385c0 .373.302 .675.675 .675s.675-.302.675-.675l.315-2.385h1.372c.373 0 .675-.302.675-.675 0-.373-.302-.675-.675-.675h-1.192l.36-2.7h1.508c.373 0 .675-.302.675-.675 0-.373-.302-.675-.675-.675h-1.327l.315-2.385c0-.373-.302-.675-.675-.675s-.675.302-.675.675l-.315 2.385h-2.7l.315-2.385c0-.373-.302-.675-.675-.675s-.675.302-.675.675l-.315 2.385h-1.373c-.373 0-.675.302-.675.675 0 .373.302 .675.675 .675h1.193l-.36 2.7zm3.218-2.7h2.7l-.36 2.7h-2.7zm0 0"/>
</svg>