<svg version="1.1" id="Layer_1" xmlns="http://www.w3.org/2000/svg" xmlns:xlink="http://www.w3.org/1999/xlink" x="0px" y="0px" viewBox="0 0 16 16" style="enable-background:new 0 0 16 16;" xml:space="preserve">
	<path fill="white" d="M12.337 8.473h-.079v-.403c.188-.109.316-.31.316-.543 0-2.521-2.051-4.573-4.573-4.573-2.522 0-4.573 2.052-4.573 4.573 0 .233.128 .434.315 .543v.403h-.079C2.75 8.473 2.007 9.322 2.007 10.365v.632c0 1.043.743 1.892 1.656 1.892h.737l.065.065c.061.061 .142.092 .223.092 .081 0 .162-.031.223-.092.073-.073.097-.172.084-.266.055-.077.087-.171.087-.272V8.946c0-.261-.212-.473-.473-.473H4.373v-.403c.188-.109.315-.31.315-.543 0-1.826 1.486-3.312 3.312-3.312s3.311 1.486 3.311 3.312c0 .233.128 .434.315 .543v.403h-.237c-.261 0-.473.212-.473.473v3.469c0 .101.033 .195.087 .272-.013.095 .012.193 .084.266 .062.061 .143.092 .223.092s.162-.031.223-.092l.065-.065h.737c.913 0 1.656-.849 1.656-1.892v-.631C13.993 9.322 13.25 8.473 12.337 8.473z"/>
</svg>
