<svg version="1.1" id="Layer_1" xmlns="http://www.w3.org/2000/svg" xmlns:xlink="http://www.w3.org/1999/xlink" x="0px" y="0px" viewBox="0 0 16 16" style="enable-background:new 0 0 16 16;" xml:space="preserve">
	<path fill="white" d="M3.188 3.765C2.55 3.765 2.033 4.282 2.033 4.92s.517 1.155 1.155 1.155 1.155-.517 1.155-1.155S3.826 3.765 3.188 3.765zM3.188 6.845C2.55 6.845 2.033 7.362 2.033 8c0 .638.517 1.155 1.155 1.155s1.155-.517 1.155-1.155C4.343 7.362 3.826 6.845 3.188 6.845zM3.188 9.925C2.55 9.925 2.033 10.442 2.033 11.08c0 .638.517 1.155 1.155 1.155s1.155-.517 1.155-1.155C4.343 10.442 3.826 9.925 3.188 9.925zM5.883 5.69h7.314c.425 0 .77-.345.77-.77s-.345-.77-.77-.77H5.883c-.425 0-.77.345-.77.77S5.457 5.69 5.883 5.69zM13.197 7.23H5.883c-.425 0-.77.345-.77.77 0 .425.345 .77.77 .77h7.314c.425 0 .77-.345.77-.77C13.967 7.575 13.622 7.23 13.197 7.23zM13.197 10.31H5.883c-.425 0-.77.345-.77.77s.345.77 .77.77h7.314c.425 0 .77-.345.77-.77S13.622 10.31 13.197 10.31z"/>
		
</svg>
