<svg version="1.1" id="Layer_1" xmlns="http://www.w3.org/2000/svg" xmlns:xlink="http://www.w3.org/1999/xlink" x="0px" y="0px"
	 viewBox="0 0 16 16" style="enable-background:new 0 0 16 16;" xml:space="preserve">
	<path fill="white" d="M8.68 2.188c-.13-.012-.283.019-.462.128 0 0-2.982 2.602-3.113 2.729H3.465C3.07 5.047 2.75 5.367 2.75 5.762v4.382c0 .396.32 .715.715 .715h1.641c.13.13 3.113 2.639 3.113 2.639.179 .108.332 .14.462 .128.265-.025.451-.247.507-.481.002-.023.002-10.452-.002-10.474C9.13 2.435 8.944 2.213 8.68 2.188z"/>
	<path fill="white" d="M10.811 6.186c-.177-.089-.391-.018-.481.159-.088.177-.017.391 .159.481 .48.242 .778.72 .778 1.249s-.298 1.008-.778 1.249c-.177.089-.247.304-.159.481 .064.124 .189.197 .32.197 .054 0 .108-.013.161-.038.723-.365 1.172-1.088 1.172-1.889S11.533 6.551 10.811 6.186z"/>
	<path fill="white" d="M10.462 3.485c-.191-.039-.383.089-.418.282-.039.195 .088.383 .282.42 1.762.343 3.041 1.893 3.041 3.684S12.088 11.213 10.326 11.556c-.194.038-.32.225-.282.42 .034.171 .183.289 .35.289l.069-.007c2.097-.408 3.619-2.253 3.619-4.386S12.56 3.894 10.462 3.485z"/>
</svg>