<svg version="1.1" id="Layer_1" xmlns="http://www.w3.org/2000/svg" xmlns:xlink="http://www.w3.org/1999/xlink" x="0px" y="0px" viewBox="0 0 16 16" style="enable-background:new 0 0 16 16;" xml:space="preserve">
	<path fill="white" d="M8.68 2.188c-.13-.012-.283.019-.462.128 0 0-2.982 2.602-3.113 2.729H3.465C3.07 5.047 2.75 5.367 2.75 5.762v4.382c0 .396.32 .715.715 .715h1.641c.13.13 3.113 2.639 3.113 2.639.179 .108.332 .14.462 .128.265-.025.451-.247.507-.481.002-.023.002-10.452-.002-10.474C9.13 2.435 8.944 2.213 8.68 2.188z"/>
	<path fill="white" d="M12.649 7.937l1.234-1.234c.171-.17.171-.447 0-.617-.17-.17-.447-.17-.617 0l-1.235 1.235-1.235-1.235c-.17-.17-.447-.17-.617 0-.17.17-.17.447 0 .617l1.234 1.234-1.234 1.235c-.17.17-.17.447 0 .616.17 .17.447 .17.616 0l1.235-1.234 1.234 1.235c.17.17 .447.17 .617 0 .17-.17.17-.447 0-.616L12.649 7.937z"/>
</svg>